<?xml version="1.0" encoding="utf-8"?><svg xml:space="preserve" viewBox="0 0 100 100" y="0" x="0" xmlns="http://www.w3.org/2000/svg" id="圖層_1" version="1.1" width="200px" height="200px" xmlns:xlink="http://www.w3.org/1999/xlink" style="width:100%;height:100%;background-size:initial;background-repeat-y:initial;background-repeat-x:initial;background-position-y:initial;background-position-x:initial;background-origin:initial;background-color:initial;background-clip:initial;background-attachment:initial;animation-play-state:paused" ><g class="ldl-scale" style="transform-origin:50% 50%;transform:rotate(0deg) scale(0.8, 0.8);animation-play-state:paused" ><path fill="#b5b5b5" d="M92.5 55.2c0 4.5-3.9 8.2-8.6 8.2h-21c.5-1.4.9-2.9.9-4.5 0-5.1-3.1-9.6-7.7-11.4.1-.8.2-1.7.2-2.5 0-1.9-.3-3.8-1-5.5 1.4-1.1 3.2-1.8 5.2-1.8.9 0 1.7.1 2.4.4C65 34.5 69 32 73.7 32c6.7 0 12.2 5.2 12.2 11.6 0 1.2-.2 2.4-.6 3.5 4.1.7 7.2 4.1 7.2 8.1zm-39.3-5.9c.4-1.3.6-2.7.6-4.2 0-1.2-.1-2.3-.4-3.4-1.5-6-7-10.5-13.5-10.5-5.3 0-9.9 3-12.3 7.4-.9-.3-1.8-.4-2.8-.4-5.1 0-9.3 4.1-9.3 9.3 0 .6.1 1.3.2 1.9-4.6.6-8.2 4.7-8.2 9.6 0 5.4 4.4 9.8 9.8 9.8h34.2c3.8 0 7.1-2.2 8.8-5.4.7-1.3 1.1-2.9 1.1-4.5 0-4.8-3.6-8.8-8.2-9.6z" style="fill:rgb(241, 229, 229);animation-play-state:paused" ></path>
<metadata xmlns:d="https://loading.io/stock/" style="animation-play-state:paused" ><d:name style="animation-play-state:paused" >cloud</d:name>
<d:tags style="animation-play-state:paused" >weather,rain,fog,smoke,cloud,weather</d:tags>
<d:license style="animation-play-state:paused" >by</d:license>
<d:slug style="animation-play-state:paused" >1hruez</d:slug></metadata></g><!-- generated by https://loading.io/ --></svg>