<?xml version="1.0" encoding="utf-8"?><svg xml:space="preserve" viewBox="0 0 100 100" y="0" x="0" xmlns="http://www.w3.org/2000/svg" id="圖層_1" version="1.1" width="200px" height="200px" xmlns:xlink="http://www.w3.org/1999/xlink" style="width:100%;height:100%;background-size:initial;background-repeat-y:initial;background-repeat-x:initial;background-position-y:initial;background-position-x:initial;background-origin:initial;background-color:initial;background-clip:initial;background-attachment:initial;animation-play-state:paused" ><g class="ldl-scale" style="transform-origin:50% 50%;transform:rotate(0deg) scale(0.8, 0.8);animation-play-state:paused" ><path fill="#b5b5b5" clip-rule="evenodd" fill-rule="evenodd" d="M20.4 48.9c-.7-2.1-1-4.3-1-6.6 0-12.1 9.8-21.9 21.9-21.9 8.4 0 15.7 4.7 19.4 11.6 1.4-.4 2.9-.7 4.4-.7 8.1 0 14.6 6.5 14.6 14.6 0 1-.1 2-.3 3 7.4 1.2 13.1 7.6 13.1 15.3 0 8.6-7 15.5-15.5 15.5H23c-8.6 0-15.5-7-15.5-15.5 0-7.7 5.6-14.1 12.9-15.3z" style="fill:rgb(241, 232, 232);animation-play-state:paused" ></path>
<metadata xmlns:d="https://loading.io/stock/" style="animation-play-state:paused" ><d:name style="animation-play-state:paused" >cloud</d:name>
<d:tags style="animation-play-state:paused" >weather,cumulus,rain,fog,smoke,cloud,weather</d:tags>
<d:license style="animation-play-state:paused" >by</d:license>
<d:slug style="animation-play-state:paused" >spar08</d:slug></metadata></g><!-- generated by https://loading.io/ --></svg>