<?xml version="1.0" encoding="utf-8"?>
<svg xmlns="http://www.w3.org/2000/svg" style="margin: auto; background: none; display: block; shape-rendering: auto;" width="280" height="250" preserveAspectRatio="xMidYMid">
<style type="text/css">
  text {
    text-anchor: middle; font-size: 90px; opacity: 0;
  }
</style>
<g style="transform-origin:140px 125px;transform:scale(1)">
<g transform="translate(140,125)">
  <g transform="translate(0,0)"><g class="path" style="transform: scale(0.91); transform-origin: -83.825px -8.38003px; animation: 1s linear -0.55s infinite normal forwards running breath-067d8a06-2d8d-4a9c-b13e-7221cb5c07de;"><path d="M51.68 0L46.01 0L46.01-43.20L45.62-40.52L30.98 0L27.99 0L13.23-40.52L12.88-43.20L12.88 0L7.21 0L7.21-63.02L10.15-63.02L29.27-11.34L29.44-9.01L29.62-11.34L48.69-63.02L51.68-63.02L51.68 0" fill="#de341e" stroke="none" stroke-width="none" transform="translate(-113.27001953125,23.12996531009674)" style="fill: rgb(222, 52, 30);"></path></g><g class="path" style="transform: scale(0.91); transform-origin: -29.49px -8.38003px; animation: 1s linear -0.44s infinite normal forwards running breath-067d8a06-2d8d-4a9c-b13e-7221cb5c07de;"><path d="M101.51 0L66.05 0L66.05-63.02L101.51-63.02L101.51-57.61L71.72-57.61L71.72-34.19L95.84-34.19L95.84-28.78L71.72-28.78L71.72-5.41L101.51-5.41L101.51 0" fill="#de341e" stroke="none" stroke-width="none" transform="translate(-113.27001953125,23.12996531009674)" style="fill: rgb(222, 52, 30);"></path></g><g class="path" style="transform: scale(0.91); transform-origin: 15.865px -8.38004px; animation: 1s linear -0.33s infinite normal forwards running breath-067d8a06-2d8d-4a9c-b13e-7221cb5c07de;"><path d="M146.87-14.59L146.87-14.59L146.87-14.59Q146.87-11.38 145.66-8.57L145.66-8.57L145.66-8.57Q144.45-5.76 142.34-3.65L142.34-3.65L142.34-3.65Q140.23-1.54 137.42-0.33L137.42-0.33L137.42-0.33Q134.60 0.88 131.40 0.88L131.40 0.88L126.91 0.88L126.91 0.88Q123.71 0.88 120.87-0.33L120.87-0.33L120.87-0.33Q118.04-1.54 115.93-3.65L115.93-3.65L115.93-3.65Q113.82-5.76 112.61-8.57L112.61-8.57L112.61-8.57Q111.40-11.38 111.40-14.59L111.40-14.59L111.40-48.43L111.40-48.43Q111.40-51.64 112.61-54.45L112.61-54.45L112.61-54.45Q113.82-57.26 115.93-59.37L115.93-59.37L115.93-59.37Q118.04-61.48 120.87-62.69L120.87-62.69L120.87-62.69Q123.71-63.90 126.91-63.90L126.91-63.90L131.40-63.90L131.40-63.90Q134.60-63.90 137.42-62.69L137.42-62.69L137.42-62.69Q140.23-61.48 142.34-59.37L142.34-59.37L142.34-59.37Q144.45-57.26 145.66-54.45L145.66-54.45L145.66-54.45Q146.87-51.64 146.87-48.43L146.87-48.43L146.87-14.59zM141.20-14.59L141.20-48.43L141.20-48.43Q141.20-50.54 140.41-52.36L140.41-52.36L140.41-52.36Q139.61-54.18 138.25-55.55L138.25-55.55L138.25-55.55Q136.89-56.91 135.07-57.70L135.07-57.70L135.07-57.70Q133.24-58.49 131.13-58.49L131.13-58.49L127.18-58.49L127.18-58.49Q125.07-58.49 123.24-57.70L123.24-57.70L123.24-57.70Q121.42-56.91 120.04-55.55L120.04-55.55L120.04-55.55Q118.65-54.18 117.86-52.36L117.86-52.36L117.86-52.36Q117.07-50.54 117.07-48.43L117.07-48.43L117.07-14.59L117.07-14.59Q117.07-12.48 117.86-10.66L117.86-10.66L117.86-10.66Q118.65-8.83 120.04-7.45L120.04-7.45L120.04-7.45Q121.42-6.06 123.24-5.27L123.24-5.27L123.24-5.27Q125.07-4.48 127.18-4.48L127.18-4.48L131.13-4.48L131.13-4.48Q133.24-4.48 135.07-5.27L135.07-5.27L135.07-5.27Q136.89-6.06 138.25-7.45L138.25-7.45L138.25-7.45Q139.61-8.83 140.41-10.66L140.41-10.66L140.41-10.66Q141.20-12.48 141.20-14.59L141.20-14.59" fill="#de341e" stroke="none" stroke-width="none" transform="translate(-113.27001953125,23.12996531009674)" style="fill: rgb(222, 52, 30);"></path></g><g class="path" style="transform: scale(0.91); transform-origin: 73.81px -8.38003px; animation: 1s linear -0.22s infinite normal forwards running breath-067d8a06-2d8d-4a9c-b13e-7221cb5c07de;"><path d="M219.16-63.02L202.50 0L199.56 0L187.29-47.42L187.12-49.88L186.86-47.42L174.68 0L171.74 0L155.00-63.02L160.66-63.02L173.01-15.12L173.19-12.79L173.36-15.12L185.49-63.02L188.66-63.02L200.79-15.12L200.96-12.79L201.18-15.12L213.49-63.02L219.16-63.02" fill="#de341e" stroke="none" stroke-width="none" transform="translate(-113.27001953125,23.12996531009674)" style="fill: rgb(222, 52, 30);"></path></g><g class="path" style="transform: scale(0.91); transform-origin: 117.09px -17.915px; animation: 1s linear -0.11s infinite normal forwards running breath-067d8a06-2d8d-4a9c-b13e-7221cb5c07de;"><path d="M234.36-63.02L231.94-19.07L228.78-19.07L226.36-63.02L234.36-63.02" fill="#de341e" stroke="none" stroke-width="none" transform="translate(-113.27001953125,23.12996531009674)" style="fill: rgb(222, 52, 30);"></path></g><g class="path" style="transform: scale(0.91); transform-origin: 117.095px 19.745px; animation: 1s linear 0s infinite normal forwards running breath-067d8a06-2d8d-4a9c-b13e-7221cb5c07de;"><path d="M233.75 0L226.98 0L226.98-6.77L233.75-6.77L233.75 0" fill="#de341e" stroke="none" stroke-width="none" transform="translate(-113.27001953125,23.12996531009674)" style="fill: rgb(222, 52, 30);"></path></g></g>
</g>
</g>
<style id="breath-067d8a06-2d8d-4a9c-b13e-7221cb5c07de" data-anikit="">@keyframes breath-067d8a06-2d8d-4a9c-b13e-7221cb5c07de
{
  0% {
    animation-timing-function: cubic-bezier(0.9647,0.2413,-0.0705,0.7911);
    transform: scale(0.9099999999999999);
  }
  51% {
    animation-timing-function: cubic-bezier(0.9226,0.2631,-0.0308,0.7628);
    transform: scale(1.02994);
  }
  100% {
    transform: scale(0.9099999999999999);
  }
}</style></svg>