<?xml version="1.0" encoding="utf-8"?>
<svg xmlns="http://www.w3.org/2000/svg" style="margin: auto; background: none; display: block; shape-rendering: auto;" width="280" height="250" preserveAspectRatio="xMidYMid">
<style type="text/css">
  text {
    text-anchor: middle; font-size: 80px; opacity: 0;
  }
</style>
<g style="transform-origin:140px 125px;transform:scale(1)">
<g transform="translate(140,125)">
  <g transform="translate(0,0)"><g class="path" style="transform: scale(0.91); transform-origin: -69.68px -6.456px; animation: 1s linear -0.495s infinite normal forwards running breath-e2ce7679-329f-4aaa-bee0-df7e067d8a06;"><path d="M7.04 0L7.04-54.56L19.60-54.56L19.60-54.56Q30-54.56 35-50.88L35-50.88L35-50.88Q40-47.20 40-38.48L40-38.48L40-38.48Q40-33.68 38.16-30.48L38.16-30.48L38.16-30.48Q36.32-27.28 33.56-25.32L33.56-25.32L33.56-25.32Q30.80-23.36 27.60-22.52L27.60-22.52L27.60-22.52Q24.40-21.68 21.68-21.68L21.68-21.68L13.76-21.68L13.76 0L7.04 0zM13.76-48.56L13.76-27.68L21.12-27.68L21.12-27.68Q23.84-27.68 26.04-28.20L26.04-28.20L26.04-28.20Q28.24-28.72 29.84-29.96L29.84-29.96L29.84-29.96Q31.44-31.20 32.32-33.32L32.32-33.32L32.32-33.32Q33.20-35.44 33.20-38.64L33.20-38.64L33.20-38.64Q33.20-41.84 32.28-43.80L32.28-43.80L32.28-43.80Q31.36-45.76 29.56-46.80L29.56-46.80L29.56-46.80Q27.76-47.84 25.04-48.20L25.04-48.20L25.04-48.20Q22.32-48.56 18.72-48.56L18.72-48.56L13.76-48.56" fill="#e9274f" stroke="none" stroke-width="none" transform="translate(-93.19999504089355,20.823998985290526)" style="fill: rgb(233, 39, 79);"></path></g><g class="path" style="transform: scale(0.91); transform-origin: -21.36px -5.976px; animation: 1s linear -0.33s infinite normal forwards running breath-e2ce7679-329f-4aaa-bee0-df7e067d8a06;"><path d="M49.84-54.56L56.56-54.56L56.56-20.48L56.56-20.48Q56.56-15.92 57.88-13L57.88-13L57.88-13Q59.20-10.08 61.36-8.40L61.36-8.40L61.36-8.40Q63.52-6.72 66.28-6.08L66.28-6.08L66.28-6.08Q69.04-5.44 71.92-5.44L71.92-5.44L71.92-5.44Q74.80-5.44 77.52-6.08L77.52-6.08L77.52-6.08Q80.24-6.72 82.40-8.40L82.40-8.40L82.40-8.40Q84.56-10.08 85.84-13L85.84-13L85.84-13Q87.12-15.92 87.12-20.48L87.12-20.48L87.12-54.56L93.84-54.56L93.84-18.80L93.84-18.80Q93.84-14.64 92.28-11.04L92.28-11.04L92.28-11.04Q90.72-7.44 87.84-4.76L87.84-4.76L87.84-4.76Q84.96-2.08 80.88-0.56L80.88-0.56L80.88-0.56Q76.80 0.96 71.84 0.96L71.84 0.96L71.84 0.96Q61.20 0.96 55.52-4.20L55.52-4.20L55.52-4.20Q49.84-9.36 49.84-18.80L49.84-18.80L49.84-54.56" fill="#e9274f" stroke="none" stroke-width="none" transform="translate(-93.19999504089355,20.823998985290526)" style="fill: rgb(233, 39, 79);"></path></g><g class="path" style="transform: scale(0.91); transform-origin: 34.12px -6.456px; animation: 1s linear -0.165s infinite normal forwards running breath-e2ce7679-329f-4aaa-bee0-df7e067d8a06;"><path d="M107.52 0L107.52-54.56L120.96-54.56L120.96-54.56Q125.36-54.56 129-53.80L129-53.80L129-53.80Q132.64-53.04 135.20-51.24L135.20-51.24L135.20-51.24Q137.76-49.44 139.12-46.48L139.12-46.48L139.12-46.48Q140.48-43.52 140.48-39.04L140.48-39.04L140.48-39.04Q140.40-34.08 138.80-31L138.80-31L138.80-31Q137.20-27.92 134.88-26.04L134.88-26.04L134.88-26.04Q132.56-24.16 129.52-23.28L129.52-23.28L129.52-23.12L129.52-23.12Q129.84-22.80 130.52-21.96L130.52-21.96L130.52-21.96Q131.20-21.12 131.68-20.48L131.68-20.48L147.12 0L139.20 0L123.36-21.68L114.24-21.68L114.24 0L107.52 0zM133.68-37.92L133.68-37.92L133.68-37.92Q133.68-41.28 132.84-43.40L132.84-43.40L132.84-43.40Q132-45.52 130.36-46.64L130.36-46.64L130.36-46.64Q128.72-47.76 126.32-48.16L126.32-48.16L126.32-48.16Q123.92-48.56 120.88-48.56L120.88-48.56L114.24-48.56L114.24-27.68L122.16-27.68L122.16-27.68Q125.28-27.68 127.44-28.48L127.44-28.48L127.44-28.48Q129.60-29.28 130.96-30.68L130.96-30.68L130.96-30.68Q132.32-32.08 132.96-33.92L132.96-33.92L132.96-33.92Q133.60-35.76 133.68-37.92" fill="#e9274f" stroke="none" stroke-width="none" transform="translate(-93.19999504089355,20.823998985290526)" style="fill: rgb(233, 39, 79);"></path></g><g class="path" style="transform: scale(0.91); transform-origin: 80.44px -6.456px; animation: 1s linear 0s infinite normal forwards running breath-e2ce7679-329f-4aaa-bee0-df7e067d8a06;"><path d="M153.84 0L153.84-54.56L167.28-54.56L167.28-54.56Q171.68-54.56 175.32-53.80L175.32-53.80L175.32-53.80Q178.96-53.04 181.52-51.24L181.52-51.24L181.52-51.24Q184.08-49.44 185.44-46.48L185.44-46.48L185.44-46.48Q186.80-43.52 186.80-39.04L186.80-39.04L186.80-39.04Q186.72-34.08 185.12-31L185.12-31L185.12-31Q183.52-27.92 181.20-26.04L181.20-26.04L181.20-26.04Q178.88-24.16 175.84-23.28L175.84-23.28L175.84-23.12L175.84-23.12Q176.16-22.80 176.84-21.96L176.84-21.96L176.84-21.96Q177.52-21.12 178-20.48L178-20.48L193.44 0L185.52 0L169.68-21.68L160.56-21.68L160.56 0L153.84 0zM180-37.92L180-37.92L180-37.92Q180-41.28 179.16-43.40L179.16-43.40L179.16-43.40Q178.32-45.52 176.68-46.64L176.68-46.64L176.68-46.64Q175.04-47.76 172.64-48.16L172.64-48.16L172.64-48.16Q170.24-48.56 167.20-48.56L167.20-48.56L160.56-48.56L160.56-27.68L168.48-27.68L168.48-27.68Q171.60-27.68 173.76-28.48L173.76-28.48L173.76-28.48Q175.92-29.28 177.28-30.68L177.28-30.68L177.28-30.68Q178.64-32.08 179.28-33.92L179.28-33.92L179.28-33.92Q179.92-35.76 180-37.92" fill="#e9274f" stroke="none" stroke-width="none" transform="translate(-93.19999504089355,20.823998985290526)" style="fill: rgb(233, 39, 79);"></path></g></g>
</g>
</g>
<style id="breath-e2ce7679-329f-4aaa-bee0-df7e067d8a06" data-anikit="">@keyframes breath-e2ce7679-329f-4aaa-bee0-df7e067d8a06
{
  0% {
    animation-timing-function: cubic-bezier(0.9647,0.2413,-0.0705,0.7911);
    transform: scale(0.9099999999999999);
  }
  51% {
    animation-timing-function: cubic-bezier(0.9226,0.2631,-0.0308,0.7628);
    transform: scale(1.02994);
  }
  100% {
    transform: scale(0.9099999999999999);
  }
}</style></svg>